<?xml version="1.0" encoding="UTF-8" standalone="no"?>
<svg
   width="300"
   height="300"
   preserveAspectRatio="xMidYMid meet"
   version="1.0"
   id="svg1"
   xmlns="http://www.w3.org/2000/svg"
   xmlns:svg="http://www.w3.org/2000/svg">

  <g class="layer">
    <path style="opacity:1;fill:#ffffff;stroke-width:2" d="m50.8,55.6c-21.7,4.1 -33.4,19.2 -38.9,50.3c-3.6,19.8 -3.8,70 -0.4,90.6c4.1,24.9 11.3,38.3 24.1,44.6c11.8,5.8 28.9,6.2 42.8,0.9c7.8,-3 16.1,-11.2 20,-20c1.6,-3.6 3.2,-7.2 3.6,-8.1c1.5,-3 4.9,-20.5 6,-30.9c2,-20 1.8,-61.2 -0.5,-75.9c-3.8,-24.5 -9.2,-37.2 -19.3,-44.8c-8.4,-6.4 -24.2,-9.2 -37.4,-6.7zm19.8,2.5c25.3,4.7 34.3,24.7 36,79.9c1.3,41 -3.5,72.3 -13.6,87.8c-8,12.5 -21.3,18.2 -39.4,16.9c-16.3,-1.1 -25.6,-7.3 -32.2,-21.1c-6.7,-14.1 -9.5,-34.6 -9.5,-70.4c0,-45.8 4.9,-67.6 18.2,-81.7c9.7,-10.3 24.3,-14.4 40.5,-11.4z" id="svg_4" />
    <path style="opacity:1;fill:#ffffff;stroke-width:2" d="m54.4,80.1c-4.8,1.4 -10.8,8.6 -13.3,16c-4.1,12.6 -5.4,25.3 -5.5,55.9c-0.1,18.5 0.4,31.6 1.2,37.3c3.5,23.8 10.4,32.7 24.7,31.5c7.1,-0.6 11.1,-3.6 14.6,-11.3c6,-12.8 8.5,-36.8 7.6,-72c-1.1,-37.8 -4.9,-51.9 -15.1,-56.6c-4.4,-2 -9.2,-2.3 -14.2,-0.8zm15.7,5.5c8.4,8 10.4,20.3 10.4,64.4c-0.1,40.9 -2.8,56.2 -11.5,64.5c-2.9,2.7 -3.8,3 -10,3c-6.2,0 -7.2,-0.3 -9.9,-2.9c-3.8,-3.6 -6.5,-9.9 -8.8,-20.6c-1.5,-7.2 -1.8,-13.4 -1.8,-39.5c0,-32.3 0.9,-42.9 4.6,-55.1c2.3,-7.4 6.9,-14.1 11.2,-16c5,-2.3 12.2,-1.3 15.8,2.2z" id="svg_5" />
    <path style="opacity:1;fill:#ffffff;stroke-width:2" d="m166,55.1c-3.1,0.4 -8.3,1.8 -11.5,3c-10.8,4 -21.7,17.3 -27.1,32.9c-6.4,18.8 -9.2,55.3 -7,92.2c0.8,13.9 3.9,30.8 6.9,37.7c7.8,17.8 17.8,24.3 37.7,24.5c15.7,0.1 28.2,-5.1 32.7,-13.7c3.3,-6.4 1.1,-19.7 -3.5,-21.1c-1.1,-0.4 -5,0.7 -8.8,2.3c-8.8,3.7 -14.1,4.5 -19.5,3.1c-9.8,-2.6 -15.3,-12.8 -17.6,-32.1c-1,-8.2 -1,-47.4 -0.1,-55.9c3.8,-32.9 12.7,-47 29.7,-47c1.7,0 6,1.2 9.7,2.7l6.6,2.7l1.9,-2.3c2.7,-3.3 4.2,-9.8 3.4,-15c-1.6,-10.8 -15.2,-16.4 -33.5,-14zm21.9,4.5c6.1,2.4 9.1,6.5 9.1,12.3c0,3.9 -1.4,10.5 -2.5,11.9c-0.2,0.2 -2.7,-0.9 -5.7,-2.5c-7.3,-3.8 -17.2,-3.9 -23.8,-0.3c-5.4,3.1 -10.1,9.1 -13,16.7c-9.6,25.3 -10.6,83.6 -1.8,107c5.6,15.2 20,19.1 37.5,10.3c3.2,-1.6 6.1,-2.6 6.5,-2.2c1.4,1.4 3.1,11.7 2.5,14.4c-3.5,13.8 -32.4,20.6 -50.2,11.9c-7.2,-3.6 -10.3,-6.8 -14.5,-15.1c-7,-13.9 -9.5,-31.4 -9.4,-67c0,-28.9 1.1,-40.7 5.4,-57.7c4.2,-16.5 13.5,-31 23.6,-36.9c9,-5.3 26.7,-6.7 36.3,-2.8z" id="svg_6" />
    <path style="opacity:1;fill:#ffffff;stroke-width:2" d="m245.5,55.1c-17.5,1.8 -29,9 -35.5,22.3c-7.4,14.9 -3.9,33.7 9.6,51.6c2.6,3.6 5.1,6.7 5.4,7c0.9,0.9 23.4,27.3 27.3,32.1c2,2.5 3.7,5.1 3.7,5.8c0,0.6 0.4,1.1 0.9,1.1c0.5,0 1.9,2.6 3.2,5.7c1.9,4.6 2.4,7.6 2.4,14.8c0,7.9 -0.3,9.5 -2.7,13.5c-3.9,6.8 -8.7,9.1 -19,9.1c-8.7,0 -15.3,-1.6 -21.1,-5.2c-6.2,-3.7 -9.4,-2 -12.3,6.5c-5.5,16.1 7.5,25.9 34.6,26c18.1,0.1 28.2,-3.4 36.9,-12.9c8.8,-9.7 12.1,-20.1 12.1,-38.3c0,-10.4 -0.4,-13.5 -2.4,-19.6c-3.6,-10.7 -10.2,-20.9 -21.3,-33.1c-1,-1.1 -4.9,-5.6 -8.8,-10c-3.8,-4.4 -8,-9.1 -9.3,-10.5c-4.1,-4.4 -11.1,-14.6 -12.7,-18.3c-0.8,-2 -1.5,-5.9 -1.5,-8.6c0,-4.2 0.5,-5.6 3.1,-8.6c6.2,-7 20.8,-8.4 37.1,-3.5c6.7,2.1 7.9,2.2 9.4,0.9c2.2,-1.8 5.3,-8.7 5.4,-11.7c0,-6.9 -6.5,-12.8 -16.5,-15c-6.1,-1.4 -19.9,-1.9 -28,-1.1zm21.8,2.9c8.1,1.2 16.2,4.5 18.2,7.4c2.1,2.9 1.9,8 -0.6,12.7c-1.5,3.1 -2.4,3.9 -3.7,3.4c-10.8,-4.4 -13,-4.9 -23.7,-4.9c-10,-0.1 -11.5,0.2 -16,2.5c-2.8,1.4 -6.1,4.1 -7.3,6c-2,2.9 -2.3,4.4 -2,10.5c0.4,9.6 3.1,13.7 25.8,39.8c10.2,11.7 20.2,24.2 22.3,27.7c13.1,22.3 10.6,54.9 -5.3,69.2c-8.6,7.7 -17.8,10.7 -33,10.7c-14.7,0 -26.6,-3.9 -31.1,-10.1c-3,-4.2 -2.2,-12.3 1.9,-18.7l1.5,-2.3l2.1,2c4.3,4.1 11.7,6.5 21.1,6.9c11.7,0.5 16.9,-0.9 21.7,-5.9c5,-5.3 7.2,-12.9 6.5,-22.4c-1,-13.1 -3.6,-17.6 -25.2,-43c-8.2,-9.8 -16.9,-20.3 -19.3,-23.4c-9.2,-12.2 -12.9,-23.2 -11.9,-35.5c2,-24.1 25.6,-37.3 58,-32.6z" id="svg_7" />
    <path style="opacity:1;fill:#ffffff;stroke-width:2" d="m 51.694915,242.31746 c -19.987798,-1.91103 -30.849326,-13.97497 -36.001464,-39.98695 -2.54447,-12.84645 -3.380199,-25.36573 -3.380199,-50.63559 0,-26.1024 0.988169,-39.63698 3.836156,-52.542378 3.543167,-16.055539 10.554253,-28.046519 20.332198,-34.773922 7.542118,-5.189113 18.493797,-7.776559 28.627305,-6.763493 23.902377,2.389566 34.308034,15.326184 38.864159,48.317073 2.26373,16.3916 3.21254,43.69906 2.16426,62.28814 -1.29899,23.03468 -5.10428,41.68273 -10.818809,53.01822 -3.747402,7.43346 -9.752894,13.61007 -16.435839,16.90418 -8.003771,3.94515 -16.286551,5.21699 -27.187767,4.17472 z m 12.656899,-21.7625 c 1.701538,-0.3605 3.786084,-1.17823 5.016877,-1.96802 6.126648,-3.93146 10.544669,-15.11539 12.782525,-32.35813 1.43028,-11.02034 1.732555,-17.43359 1.717542,-36.44067 C 83.82778,97.900858 79.139826,81.658766 63.504398,79.232846 57.96822,78.373878 52.745655,79.784072 49.134073,83.113111 40.462084,91.106672 36.97661,103.89965 35.759324,132.20339 c -0.546419,12.70507 -0.249538,46.74242 0.469374,53.81356 0.947252,9.31708 3.63538,19.83136 6.392872,25.00494 4.371229,8.20127 12.071557,11.57941 21.730244,9.53307 z" id="path5" />
    <path style="opacity:1;fill:#ffffff;stroke-width:2" d="m 157.61,242.18319 c -8.91517,-1.38575 -16.71858,-5.52165 -20.94054,-11.09874 -5.97983,-7.89916 -10.20847,-20.05228 -12.06896,-34.68614 -2.09907,-16.51049 -2.44844,-55.17744 -0.66042,-73.09323 1.9446,-19.48471 6.84232,-35.467584 14.41284,-47.033894 3.54966,-5.423189 10.1606,-11.97338 14.18945,-14.059063 9.50098,-4.918523 25.63125,-6.043202 35.03895,-2.44308 5.12122,1.959776 8.47499,5.837234 9.05926,10.473821 0.42712,3.389567 -1.34436,13.231712 -2.38157,13.231712 -0.15929,0 -2.07891,-0.843795 -4.26584,-1.875099 -5.36304,-2.529093 -8.42945,-3.256753 -13.65672,-3.240749 -8.25685,0.02528 -13.30778,2.352716 -18.33659,8.449369 -9.08665,11.016168 -13.86294,35.085643 -13.84295,69.759703 0.021,36.4642 5.04621,55.30516 16.24688,60.91437 7.25458,3.63305 15.47177,3.02599 26.78075,-1.97848 2.94324,-1.30246 5.72057,-2.3681 6.17183,-2.3681 0.99066,0 1.53156,1.22324 2.40119,5.43025 0.94173,4.55581 0.84266,8.7156 -0.26192,10.99736 -4.36923,9.02562 -22.39024,15.02856 -37.88564,12.61999 z" id="path6" />
    <path style="opacity:1;fill:#ffffff;stroke-width:2" d="m 232.32973,242.14866 c -10.65801,-1.45349 -19.2599,-5.57977 -21.77631,-10.44596 -2.18402,-4.22342 -1.26153,-10.8661 2.39012,-17.21084 l 1.29234,-2.24543 2.13418,1.91881 c 4.08357,3.67148 9.92805,5.74312 18.72904,6.63872 5.46628,0.55626 12.09163,0.26542 15.74836,-0.69132 7.16118,-1.87364 12.52832,-8.15631 14.42685,-16.88782 0.5775,-2.65597 0.68016,-4.61525 0.49955,-9.5339 -0.2633,-7.17049 -1.12384,-11.03469 -3.51462,-15.7823 -3.1807,-6.31621 -5.61082,-9.49471 -25.38708,-33.20523 -7.1921,-8.62288 -14.35265,-17.39407 -15.91234,-19.49153 -5.72256,-7.69567 -9.1164,-14.77173 -10.66956,-22.24576 -1.1456,-5.512778 -0.90166,-14.867524 0.50275,-19.279659 3.50064,-10.997714 11.52651,-18.89511 23.61319,-23.235195 5.82611,-2.09204 11.85537,-2.996992 20.04295,-3.008312 12.31943,-0.01703 21.36743,1.856527 27.9751,5.79277 3.21329,1.914182 4.36352,4.146249 4.09715,7.950737 -0.22979,3.28211 -1.5213,6.888828 -3.17693,8.872009 l -1.20103,1.43864 -5.26663,-1.939521 c -7.38967,-2.721359 -9.32059,-3.014063 -20.09715,-3.046478 -8.04302,-0.02419 -9.64179,0.08072 -11.65254,0.764628 -5.32265,1.810376 -10.20048,5.559988 -12.04306,9.257558 -0.96879,1.944124 -1.0917,2.698923 -1.08518,6.664326 0.0188,11.427637 1.61602,14.133837 23.2653,39.418867 22.88241,26.72527 26.40295,31.64704 29.72084,41.5503 2.2481,6.71013 2.97873,11.01483 3.23391,19.05357 0.27308,8.60252 -0.39566,14.1471 -2.50424,20.76271 -2.36879,7.43202 -5.57334,12.82353 -10.35626,17.42394 -5.09016,4.89593 -11.43804,8.37861 -18.00131,9.87619 -6.74034,1.53798 -17.39449,1.90641 -25.02739,0.86548 z" id="path7" />
   </g>
</svg>
