<svg width="93.263" height="99.61" viewBox="0 0 93.263 99.61" xmlns="http://www.w3.org/2000/svg"><g id="svgGroup" stroke-linecap="round" fill-rule="evenodd" font-size="9pt" stroke="#000" stroke-width="0.25mm" fill="#000" style="stroke:#000;stroke-width:0.25mm;fill:#000"><path d="M 35.794 63.637 A 196.874 196.874 0 0 0 45.655 63.868 A 199.327 199.327 0 0 0 56.238 63.605 Q 61.166 63.342 65.365 62.816 A 78.185 78.185 0 0 0 73.365 61.426 A 46.612 46.612 0 0 0 78.161 60.049 Q 84.996 57.66 88.551 53.589 A 18.496 18.496 0 0 0 92.614 45.422 A 27.221 27.221 0 0 0 93.263 39.307 Q 93.263 31.104 89.6 23.951 A 39.401 39.401 0 0 0 79.42 11.426 A 45.714 45.714 0 0 0 75.585 8.591 A 50.875 50.875 0 0 0 64.259 3.028 A 51.734 51.734 0 0 0 59.293 1.565 A 57.94 57.94 0 0 0 45.655 0.001 Q 35.841 0.001 27.516 2.955 A 51.25 51.25 0 0 0 24.966 3.936 A 44.12 44.12 0 0 0 13.014 11.231 A 37.906 37.906 0 0 0 3.419 23.707 A 34.229 34.229 0 0 0 2.046 27.014 A 36.474 36.474 0 0 0 0.001 39.307 A 35.319 35.319 0 0 0 0.031 40.79 Q 0.164 43.949 0.872 46.631 A 18.607 18.607 0 0 0 4.395 53.736 Q 8.79 59.131 18.8 61.5 A 56.814 56.814 0 0 0 19.728 61.711 Q 26.353 63.162 35.794 63.637 Z M 23.927 76.075 L 24.561 73.682 A 23.228 23.228 0 0 0 25.097 71.155 A 26.485 26.485 0 0 0 25.221 70.264 A 35.647 35.647 0 0 0 25.357 68.904 Q 25.416 68.198 25.461 67.385 A 84.039 84.039 0 0 0 25.538 65.65 Q 25.625 63.139 25.635 59.318 A 381.178 381.178 0 0 0 25.636 58.399 L 27.589 58.887 Q 27.589 63.233 27.467 66.016 A 79.04 79.04 0 0 1 27.361 67.935 Q 27.255 69.481 27.1 70.655 A 28.941 28.941 0 0 1 26.624 73.328 A 25.47 25.47 0 0 1 26.417 74.171 L 25.782 76.563 A 70.068 70.068 0 0 0 25.092 79.426 A 52.77 52.77 0 0 0 24.586 82.056 A 38.663 38.663 0 0 0 24.341 83.76 Q 24.171 85.185 24.171 86.28 A 9.019 9.019 0 0 0 25.362 90.935 Q 26.376 92.661 28.253 93.954 A 13.663 13.663 0 0 0 29.615 94.776 A 20.166 20.166 0 0 0 33.854 96.386 Q 38.619 97.657 45.655 97.657 A 63.578 63.578 0 0 0 51.229 97.429 Q 56.99 96.92 60.691 95.276 A 16.235 16.235 0 0 0 61.72 94.776 A 11.799 11.799 0 0 0 64.636 92.65 A 8.734 8.734 0 0 0 67.14 86.28 A 19.249 19.249 0 0 0 67.086 84.901 Q 67.034 84.19 66.934 83.379 A 42.823 42.823 0 0 0 66.749 82.056 A 41.552 41.552 0 0 0 66.248 79.426 A 55.654 55.654 0 0 0 65.528 76.563 L 64.893 74.171 A 32.771 32.771 0 0 1 64.274 71.165 A 36.641 36.641 0 0 1 64.185 70.582 Q 63.917 68.702 63.819 65.894 Q 63.732 63.383 63.723 59.562 A 381.178 381.178 0 0 1 63.722 58.643 L 65.675 58.106 A 372.167 372.167 0 0 0 65.681 60.291 Q 65.697 62.966 65.753 64.911 A 111.765 111.765 0 0 0 65.772 65.528 A 73.654 73.654 0 0 0 65.861 67.437 Q 65.958 69.027 66.114 70.215 A 35.348 35.348 0 0 0 66.477 72.439 A 29.463 29.463 0 0 0 66.749 73.682 L 67.384 76.075 A 73.819 73.819 0 0 1 68.116 79.072 A 54.753 54.753 0 0 1 68.653 81.812 Q 69.093 84.424 69.093 86.28 Q 69.093 92.872 63.16 96.241 A 21.198 21.198 0 0 1 58.415 98.159 Q 53.249 99.61 45.655 99.61 A 64.386 64.386 0 0 1 39.592 99.343 Q 32.414 98.662 28.15 96.241 A 12.727 12.727 0 0 1 24.712 93.474 Q 22.413 90.782 22.233 86.939 A 14.124 14.124 0 0 1 22.218 86.28 A 19.577 19.577 0 0 1 22.279 84.782 Q 22.382 83.445 22.657 81.812 A 54.753 54.753 0 0 1 23.194 79.072 A 73.819 73.819 0 0 1 23.927 76.075 Z M 48.878 57.325 A 13.838 13.838 0 0 0 56.08 55.396 A 14.539 14.539 0 0 0 61.256 50.196 A 13.967 13.967 0 0 0 63.184 42.969 A 13.838 13.838 0 0 0 61.256 35.767 Q 59.327 32.52 56.08 30.591 A 13.838 13.838 0 0 0 48.878 28.663 A 13.967 13.967 0 0 0 41.651 30.591 Q 38.38 32.52 36.451 35.767 A 13.838 13.838 0 0 0 34.522 42.969 A 13.967 13.967 0 0 0 36.451 50.196 Q 38.38 53.467 41.651 55.396 A 13.967 13.967 0 0 0 48.878 57.325 Z M 14.698 51.172 A 12.856 12.856 0 0 0 19.272 50.388 A 11.405 11.405 0 0 0 24.049 46.924 A 15.199 15.199 0 0 0 27.493 38.492 A 19.876 19.876 0 0 0 27.589 36.524 A 17.372 17.372 0 0 0 27.176 32.641 A 12.712 12.712 0 0 0 25.269 28.223 A 7.542 7.542 0 0 0 20.007 24.993 A 11.678 11.678 0 0 0 18.165 24.854 A 12.934 12.934 0 0 0 13.908 25.537 A 11.62 11.62 0 0 0 11.109 26.954 Q 8.057 29.053 6.373 32.545 A 17.123 17.123 0 0 0 4.738 38.846 A 20.498 20.498 0 0 0 4.688 40.284 A 13.942 13.942 0 0 0 5.096 43.747 A 10.058 10.058 0 0 0 7.472 48.17 A 9.242 9.242 0 0 0 13.947 51.15 A 12.545 12.545 0 0 0 14.698 51.172 Z M 44.532 21.29 A 20.199 20.199 0 0 0 48.707 20.874 A 16.806 16.806 0 0 0 51.466 20.045 A 14.862 14.862 0 0 0 54.116 18.684 A 11.265 11.265 0 0 0 56.446 16.675 A 7.735 7.735 0 0 0 57.801 14.527 A 6.682 6.682 0 0 0 58.302 11.963 A 6.858 6.858 0 0 0 56.83 7.722 A 8.895 8.895 0 0 0 56.446 7.252 A 11.484 11.484 0 0 0 53.672 4.965 A 15.303 15.303 0 0 0 51.466 3.882 A 17.56 17.56 0 0 0 46.733 2.747 A 21.577 21.577 0 0 0 44.532 2.637 A 20.199 20.199 0 0 0 40.357 3.053 A 16.806 16.806 0 0 0 37.599 3.882 A 15.04 15.04 0 0 0 34.942 5.243 A 11.504 11.504 0 0 0 32.594 7.252 A 7.751 7.751 0 0 0 31.244 9.345 A 6.606 6.606 0 0 0 30.714 11.963 A 6.784 6.784 0 0 0 32.153 16.137 A 8.858 8.858 0 0 0 32.594 16.675 A 11.74 11.74 0 0 0 35.43 18.987 A 15.512 15.512 0 0 0 37.599 20.045 A 17.56 17.56 0 0 0 42.331 21.18 A 21.577 21.577 0 0 0 44.532 21.29 Z M 74.952 34.424 A 8.839 8.839 0 0 0 77.864 33.965 A 7.423 7.423 0 0 0 81.178 31.641 A 9.77 9.77 0 0 0 83.497 25.196 A 11.423 11.423 0 0 0 82.107 19.783 A 14.26 14.26 0 0 0 81.471 18.702 A 17.068 17.068 0 0 0 76.27 13.55 A 12.951 12.951 0 0 0 72.503 11.885 A 11.551 11.551 0 0 0 69.63 11.524 A 9.17 9.17 0 0 0 66.077 12.194 A 8.604 8.604 0 0 0 63.014 14.38 A 10.16 10.16 0 0 0 61.075 17.376 A 9.054 9.054 0 0 0 60.401 20.85 A 10.7 10.7 0 0 0 61.997 26.434 A 13.569 13.569 0 0 0 62.647 27.418 Q 64.893 30.518 68.238 32.471 A 14.929 14.929 0 0 0 71.563 33.928 A 11.994 11.994 0 0 0 74.952 34.424 Z M 16.456 20.655 A 5.942 5.942 0 0 0 18.208 20.374 Q 18.946 20.147 19.731 19.734 A 12.298 12.298 0 0 0 20.509 19.288 A 15.377 15.377 0 0 0 24.293 15.992 A 10.073 10.073 0 0 0 25.06 14.936 Q 25.865 13.647 25.88 12.54 A 3.092 3.092 0 0 0 25.88 12.501 A 2.913 2.913 0 0 0 24.954 10.312 A 3.66 3.66 0 0 0 24.781 10.157 A 3.917 3.917 0 0 0 22.433 9.239 A 5.037 5.037 0 0 0 22.12 9.229 A 7.907 7.907 0 0 0 18.824 9.967 A 9.888 9.888 0 0 0 17.896 10.45 A 11.111 11.111 0 0 0 14.478 13.526 A 7.771 7.771 0 0 0 13.597 15.071 A 5.683 5.683 0 0 0 13.136 17.286 A 3.787 3.787 0 0 0 13.313 18.469 A 3.151 3.151 0 0 0 14.063 19.703 A 3.112 3.112 0 0 0 16.098 20.64 A 4.217 4.217 0 0 0 16.456 20.655 Z M 82.52 49.854 A 3.788 3.788 0 0 0 85.312 48.679 A 4.833 4.833 0 0 0 85.426 48.56 A 4.468 4.468 0 0 0 86.614 45.67 A 5.833 5.833 0 0 0 86.622 45.362 Q 86.622 42.872 84.986 40.943 Q 83.626 39.339 82.013 39.069 A 4.014 4.014 0 0 0 81.349 39.014 A 5.255 5.255 0 0 0 79.816 39.228 A 4.184 4.184 0 0 0 78.077 40.259 A 4.184 4.184 0 0 0 76.825 43.01 A 5.649 5.649 0 0 0 76.807 43.458 A 6.506 6.506 0 0 0 78.516 47.95 A 6.213 6.213 0 0 0 79.941 49.147 A 4.929 4.929 0 0 0 82.52 49.854 Z" vector-effect="non-scaling-stroke"/></g></svg>